<svg width="10" height="10" viewBox="0 0 10 10" fill="none" xmlns="http://www.w3.org/2000/svg">
<path fill-rule="evenodd" clip-rule="evenodd" d="M9.21875 5C9.21875 6.11888 8.77428 7.19194 7.98311 7.98311C7.19194 8.77428 6.11888 9.21875 5 9.21875C3.88112 9.21875 2.80806 8.77428 2.01689 7.98311C1.22572 7.19194 0.78125 6.11888 0.78125 5C0.78125 3.88112 1.22572 2.80806 2.01689 2.01689C2.80806 1.22572 3.88112 0.78125 5 0.78125C6.11888 0.78125 7.19194 1.22572 7.98311 2.01689C8.77428 2.80806 9.21875 3.88112 9.21875 5ZM10 5C10 6.32608 9.47322 7.59785 8.53553 8.53553C7.59785 9.47322 6.32608 10 5 10C3.67392 10 2.40215 9.47322 1.46447 8.53553C0.526784 7.59785 0 6.32608 0 5C0 3.67392 0.526784 2.40215 1.46447 1.46447C2.40215 0.526784 3.67392 0 5 0C6.32608 0 7.59785 0.526784 8.53553 1.46447C9.47322 2.40215 10 3.67392 10 5ZM4.66875 3.45625L5.74375 4.53125H2.5V5.46875H5.74375L4.66875 6.54375L5.33125 7.20625L7.20625 5.33125C7.29403 5.24336 7.34334 5.12422 7.34334 5C7.34334 4.87578 7.29403 4.75664 7.20625 4.66875L5.33125 2.79375L4.66875 3.45625Z" fill="white"/>
</svg>
