<svg width="10" height="8" viewBox="0 0 10 8" fill="none" xmlns="http://www.w3.org/2000/svg">
<path fill-rule="evenodd" clip-rule="evenodd" d="M4.7005 2.12813L4.72149 2.47415L4.37175 2.43178C3.09869 2.26936 1.98652 1.71855 1.04222 0.793467L0.580568 0.334457L0.461656 0.673418C0.209844 1.42902 0.370724 2.22699 0.895334 2.76368C1.17513 3.06027 1.11217 3.10264 0.629531 2.9261C0.461656 2.8696 0.314766 2.82723 0.300776 2.84842C0.251813 2.89785 0.419688 3.54046 0.552589 3.79468C0.734453 4.14777 1.10518 4.49379 1.51088 4.69858L1.85362 4.861L1.44792 4.86806C1.05621 4.86806 1.04222 4.87512 1.08419 5.02342C1.22409 5.48243 1.77668 5.96968 2.39222 6.18153L2.8259 6.32983L2.44818 6.5558C1.88859 6.88064 1.23108 7.06424 0.573573 7.07837C0.258807 7.08543 0 7.11368 0 7.13486C0 7.20548 0.853365 7.60093 1.35 7.75629C2.83989 8.2153 4.60957 8.01757 5.93858 7.23372C6.88288 6.67585 7.82717 5.56717 8.26785 4.49379C8.50567 3.92179 8.74349 2.87666 8.74349 2.37528C8.74349 2.05045 8.76448 2.00808 9.15619 1.61968C9.38701 1.39371 9.60385 1.14655 9.64582 1.07593C9.71577 0.941762 9.70877 0.941762 9.35204 1.06181C8.75748 1.27366 8.67354 1.24541 8.96733 0.927639C9.18416 0.701665 9.44297 0.292087 9.44297 0.172039C9.44297 0.150853 9.33805 0.186162 9.21914 0.249717C9.09323 0.320334 8.81344 0.426259 8.6036 0.489814L8.22588 0.609863L7.88313 0.376827C7.69427 0.249717 7.42847 0.108483 7.28858 0.0661133C6.93184 -0.0327503 6.38625 -0.018627 6.06449 0.09436C5.19014 0.412136 4.63755 1.23129 4.7005 2.12813Z" fill="#2D2D2D"/>
</svg>
