<svg width="12" height="12" viewBox="0 0 12 12" fill="none" xmlns="http://www.w3.org/2000/svg">
<path fill-rule="evenodd" clip-rule="evenodd" d="M5.99985 0.666016C4.55139 0.666016 4.36961 0.672349 3.80072 0.698238C3.23293 0.724238 2.84537 0.814128 2.50626 0.946019C2.15548 1.08224 1.85792 1.26447 1.56147 1.56103C1.2648 1.85747 1.08258 2.15503 0.945907 2.5057C0.813684 2.84493 0.723683 3.2326 0.698127 3.80016C0.672682 4.36905 0.666016 4.55095 0.666016 5.9994C0.666016 7.44786 0.67246 7.62909 0.698238 8.19798C0.72435 8.76577 0.814239 9.15333 0.946019 9.49244C1.08235 9.84322 1.26458 10.1408 1.56114 10.4372C1.85747 10.7339 2.15503 10.9166 2.50559 11.0528C2.84493 11.1847 3.2326 11.2746 3.80027 11.3006C4.36917 11.3265 4.55083 11.3328 5.99918 11.3328C7.44775 11.3328 7.62898 11.3265 8.19787 11.3006C8.76566 11.2746 9.15366 11.1847 9.493 11.0528C9.84367 10.9166 10.1408 10.7339 10.4371 10.4372C10.7338 10.1408 10.916 9.84322 11.0527 9.49255C11.1838 9.15333 11.2738 8.76566 11.3005 8.1981C11.326 7.6292 11.3327 7.44786 11.3327 5.9994C11.3327 4.55095 11.326 4.36917 11.3005 3.80027C11.2738 3.23249 11.1838 2.84493 11.0527 2.50581C10.916 2.15503 10.7338 1.85747 10.4371 1.56103C10.1404 1.26436 9.84378 1.08213 9.49266 0.946019C9.15266 0.814128 8.76488 0.724238 8.19709 0.698238C7.6282 0.672349 7.44709 0.666016 5.99818 0.666016H5.99985ZM5.52138 1.62712C5.66338 1.6269 5.82182 1.62712 5.99983 1.62712C7.42384 1.62712 7.59262 1.63223 8.15496 1.65779C8.67497 1.68157 8.95719 1.76846 9.14519 1.84146C9.39408 1.93813 9.57153 2.05368 9.75809 2.24035C9.94476 2.42702 10.0603 2.6048 10.1572 2.85369C10.2302 3.04147 10.3172 3.3237 10.3409 3.8437C10.3664 4.40593 10.372 4.57482 10.372 5.99817C10.372 7.42152 10.3664 7.59041 10.3409 8.15264C10.3171 8.67264 10.2302 8.95487 10.1572 9.14265C10.0605 9.39154 9.94476 9.56876 9.75809 9.75532C9.57142 9.94199 9.3942 10.0575 9.14519 10.1542C8.95741 10.2275 8.67497 10.3142 8.15496 10.338C7.59273 10.3635 7.42384 10.3691 5.99983 10.3691C4.5757 10.3691 4.40692 10.3635 3.84469 10.338C3.32469 10.314 3.04246 10.2271 2.85435 10.1541C2.60546 10.0574 2.42768 9.94188 2.24101 9.75521C2.05434 9.56854 1.93878 9.3912 1.84189 9.1422C1.76889 8.95442 1.68189 8.6722 1.65823 8.15219C1.63267 7.58996 1.62756 7.42107 1.62756 5.99683C1.62756 4.5726 1.63267 4.4046 1.65823 3.84237C1.682 3.32236 1.76889 3.04014 1.84189 2.85213C1.93856 2.60324 2.05434 2.42546 2.24101 2.2388C2.42768 2.05213 2.60546 1.93657 2.85435 1.83968C3.04235 1.76635 3.32469 1.67968 3.84469 1.65579C4.3367 1.63357 4.52737 1.6269 5.52138 1.62579V1.62712ZM8.84675 2.51269C8.49341 2.51269 8.20674 2.79903 8.20674 3.15247C8.20674 3.50581 8.49341 3.79248 8.84675 3.79248C9.20009 3.79248 9.48676 3.50581 9.48676 3.15247C9.48676 2.79914 9.20009 2.51269 8.84675 2.51269ZM5.99986 3.26047C4.48729 3.26047 3.26094 4.48682 3.26094 5.99939C3.26094 7.51196 4.48729 8.73775 5.99986 8.73775C7.51243 8.73775 8.73833 7.51196 8.73833 5.99939C8.73833 4.48682 7.51243 3.26047 5.99986 3.26047ZM5.99984 4.22159C6.98163 4.22159 7.77763 5.01749 7.77763 5.99939C7.77763 6.98118 6.98163 7.77719 5.99984 7.77719C5.01794 7.77719 4.22204 6.98118 4.22204 5.99939C4.22204 5.01749 5.01794 4.22159 5.99984 4.22159Z" fill="#2D2D2D"/>
</svg>
