<svg width="12" height="12" viewBox="0 0 12 12" fill="none" xmlns="http://www.w3.org/2000/svg">
<path fill-rule="evenodd" clip-rule="evenodd" d="M11.3327 5.99195C11.3327 6.35264 11.296 6.71282 11.2238 7.06391C11.1535 7.40667 11.0493 7.74317 10.9129 8.06485C10.7796 8.38084 10.6142 8.68535 10.4209 8.96932C10.2306 9.2515 10.0113 9.51623 9.77038 9.75756C9.52896 9.99784 9.26332 10.2165 8.98128 10.4077C8.69637 10.5996 8.39143 10.7647 8.07525 10.8987C7.75311 11.0344 7.41583 11.1384 7.07337 11.2086C6.72181 11.281 6.36031 11.3179 5.99911 11.3179C5.63763 11.3179 5.27616 11.281 4.9251 11.2086C4.58212 11.1384 4.24486 11.0344 3.92297 10.8987C3.60681 10.7647 3.30157 10.5996 3.01667 10.4077C2.73462 10.2165 2.46899 9.99784 2.22809 9.75756C1.98694 9.51623 1.76764 9.2515 1.57701 8.96932C1.38481 8.68535 1.21917 8.38082 1.08532 8.06485C0.948833 7.74317 0.844415 7.40665 0.773836 7.06391C0.702485 6.71282 0.666016 6.35264 0.666016 5.99195C0.666016 5.631 0.702464 5.27005 0.773857 4.91973C0.844436 4.57697 0.948854 4.23995 1.08534 3.91879C1.21919 3.60257 1.38483 3.29779 1.57703 3.0138C1.76766 2.73139 1.98696 2.46716 2.22811 2.22556C2.46901 1.98526 2.73464 1.76709 3.01669 1.57622C3.30159 1.3835 3.60683 1.21839 3.92299 1.08419C4.24488 0.948154 4.58212 0.843887 4.92512 0.774202C5.27618 0.702432 5.63766 0.666016 5.99913 0.666016C6.36033 0.666016 6.72181 0.702432 7.07339 0.774202C7.41585 0.843908 7.75311 0.948175 8.07527 1.08419C8.39143 1.21837 8.69639 1.3835 8.9813 1.57622C9.26334 1.76709 9.529 1.98526 9.7704 2.22556C10.0113 2.46716 10.2306 2.73139 10.421 3.0138C10.6142 3.29779 10.7796 3.60259 10.9129 3.91879C11.0493 4.23995 11.1535 4.57697 11.2238 4.91973C11.296 5.27005 11.3327 5.631 11.3327 5.99195ZM4.05576 1.87813C2.78563 2.47705 1.83766 3.64573 1.54207 5.05419C1.66214 5.05523 3.56016 5.07916 5.74698 4.49896C4.95867 3.10038 4.11644 1.95903 4.05576 1.87813ZM6.12434 5.19932C3.77918 5.9004 1.52879 5.84995 1.44807 5.84685C1.44675 5.89573 1.44441 5.94305 1.44441 5.99195C1.44441 7.16036 1.88584 8.22554 2.6114 9.03095C2.60983 9.0286 3.85627 6.82048 6.3142 6.0268C6.37357 6.00704 6.434 5.98934 6.4939 5.97219C6.37958 5.71371 6.25481 5.45469 6.12434 5.19932ZM9.00707 2.57847C8.20519 1.8724 7.15228 1.44412 5.99909 1.44412C5.62902 1.44412 5.26988 1.48885 4.92586 1.57154C4.99408 1.66309 5.84961 2.7964 6.62854 4.2246C8.34714 3.58124 8.99586 2.5951 9.00707 2.57847ZM6.80436 6.72582C6.79422 6.72918 6.78407 6.73208 6.77416 6.73571C4.08682 7.6712 3.20924 9.55649 3.19974 9.57706C3.97298 10.1775 4.94282 10.5398 5.99912 10.5398C6.62987 10.5398 7.23068 10.4115 7.77732 10.1794C7.70987 9.78199 7.44528 8.38914 6.80436 6.72582ZM8.54428 9.76379C9.56698 9.07465 10.2933 7.98035 10.4959 6.7128C10.4022 6.68263 9.12789 6.2798 7.65775 6.51516C8.25518 8.15457 8.49792 9.4897 8.54428 9.76379ZM6.97912 4.90231C7.08483 5.11921 7.18721 5.33996 7.28173 5.56181C7.31534 5.6414 7.34815 5.71942 7.38018 5.79742C8.94483 5.60081 10.4863 5.9316 10.5522 5.94511C10.5418 4.86694 10.1556 3.87742 9.5165 3.10274C9.5079 3.11493 8.7774 4.16894 6.97912 4.90231Z" fill="#2D2D2D"/>
</svg>
