<svg width="19" height="20" viewBox="0 0 19 20" fill="none" xmlns="http://www.w3.org/2000/svg">
<path d="M18.7806 0.242683C18.6736 0.13075 18.5385 0.0532513 18.3911 0.0192998C18.2437 -0.0146517 18.0901 -0.00364489 17.9484 0.0510261L0.511497 6.71735C0.361119 6.77732 0.231651 6.88397 0.14029 7.02313C0.0489299 7.16229 0 7.32738 0 7.49648C0 7.66557 0.0489299 7.83066 0.14029 7.96982C0.231651 8.10899 0.361119 8.21563 0.511497 8.2756L8.12033 11.4754L11.1639 19.475C11.221 19.6262 11.3191 19.7564 11.4458 19.8497C11.5726 19.943 11.7225 19.9952 11.8772 20C12.0374 19.9965 12.1928 19.9421 12.3229 19.844C12.4531 19.7458 12.5519 19.6084 12.6064 19.45L18.9471 1.11764C19.0011 0.970209 19.0141 0.809679 18.9846 0.654765C18.9551 0.49985 18.8844 0.356935 18.7806 0.242683V0.242683ZM11.8772 16.8335L9.66587 11.0005L13.4624 7.009L12.3448 5.83406L8.51662 9.85885L3.00022 7.50064L16.8943 2.22591L11.8772 16.8335Z" fill="#FF8401"/>
</svg>
