<svg width="23" height="23" viewBox="0 0 23 23" fill="none" xmlns="http://www.w3.org/2000/svg">
<path d="M23 23H0V0H23V23ZM8.26077 6.91569C8.26131 6.72342 8.22208 6.53312 8.14556 6.35674C8.06903 6.18035 7.95686 6.0217 7.81608 5.89075C7.67531 5.75979 7.50897 5.65937 7.32752 5.59577C7.14608 5.53218 6.95344 5.5068 6.76171 5.52122C6.57133 5.50669 6.37999 5.53132 6.1995 5.59361C6.01901 5.6559 5.8532 5.75452 5.7123 5.88337C5.57141 6.01223 5.45841 6.1686 5.38029 6.34282C5.30217 6.51704 5.26059 6.70543 5.2581 6.89635C5.25562 7.08727 5.29228 7.27667 5.36584 7.45287C5.4394 7.62907 5.54828 7.78832 5.68578 7.9208C5.82327 8.05329 5.98646 8.15618 6.16526 8.22315C6.34407 8.29012 6.53471 8.31973 6.7254 8.31016H6.74428C6.93726 8.32645 7.13152 8.30249 7.31476 8.2398C7.49799 8.1771 7.66621 8.07705 7.80877 7.94596C7.95133 7.81488 8.06511 7.65562 8.14291 7.47827C8.22072 7.30092 8.26085 7.10935 8.26077 6.91569ZM8.0821 9.41266H5.40356V17.4773H8.08355L8.0821 9.41266ZM17.7533 12.8523C17.7533 10.3757 16.4315 9.22092 14.6666 9.22092C14.1807 9.20101 13.6986 9.31465 13.2727 9.54948C12.8468 9.78432 12.4935 10.1314 12.251 10.5529V9.4112H9.56808C9.6044 10.1665 9.56808 17.4788 9.56808 17.4788H12.2524V12.9729C12.2418 12.7515 12.2713 12.5301 12.3396 12.3193C12.4397 12.0341 12.6254 11.7867 12.8714 11.611C13.1173 11.4352 13.4115 11.3397 13.7137 11.3373C14.6869 11.3373 15.0733 12.0781 15.0733 13.1617V17.4802H17.7548L17.7533 12.8523ZM12.2335 10.5805L12.251 10.5529L12.2524 10.5805H12.2335Z" fill="#B7B7B7"/>
</svg>
