<svg width="17" height="22" viewBox="0 0 17 22" fill="none" xmlns="http://www.w3.org/2000/svg">
<path d="M8.5004 12.6414C10.7842 12.6414 12.6414 10.7842 12.6414 8.5004C12.6414 6.21662 10.7842 4.35938 8.5004 4.35938C6.21662 4.35938 4.35938 6.21662 4.35938 8.5004C4.35938 10.7842 6.21662 12.6414 8.5004 12.6414ZM8.5004 6.42989C9.64229 6.42989 10.5709 7.35851 10.5709 8.5004C10.5709 9.64229 9.64229 10.5709 8.5004 10.5709C7.35851 10.5709 6.42989 9.64229 6.42989 8.5004C6.42989 7.35851 7.35851 6.42989 8.5004 6.42989Z" fill="#FF8401"/>
<path d="M7.88376 21.1605C8.06358 21.2896 8.27903 21.359 8.5 21.359C8.72097 21.359 8.93642 21.2896 9.11624 21.1605C9.43924 20.9309 17.0307 15.4213 16.9999 8.54366C16.9999 3.8329 13.1866 0 8.5 0C3.81336 0 9.3539e-05 3.8329 9.3539e-05 8.53832C-0.0307186 15.4213 7.56076 20.9309 7.88376 21.1605ZM8.5 2.13591C12.0158 2.13591 14.8749 5.00979 14.8749 8.549C14.8972 13.2886 10.2127 17.5444 8.5 18.9402C6.78833 17.5433 2.10276 13.2865 2.12507 8.54366C2.12507 5.00979 4.98423 2.13591 8.5 2.13591Z" fill="#FF8401"/>
</svg>
