<svg width="39" height="49" viewBox="0 0 39 49" fill="none" xmlns="http://www.w3.org/2000/svg">
<path d="M19.5 29C24.7393 29 29 24.7393 29 19.5C29 14.2607 24.7393 10 19.5 10C14.2607 10 10 14.2607 10 19.5C10 24.7393 14.2607 29 19.5 29ZM19.5 14.75C22.1196 14.75 24.25 16.8804 24.25 19.5C24.25 22.1196 22.1196 24.25 19.5 24.25C16.8804 24.25 14.75 22.1196 14.75 19.5C14.75 16.8804 16.8804 14.75 19.5 14.75Z" fill="white"/>
<path d="M18.0863 48.5447C18.4988 48.8408 18.9931 49 19.5 49C20.0069 49 20.5012 48.8408 20.9137 48.5447C21.6547 48.0179 39.0705 35.3783 38.9998 19.6002C38.9998 8.79312 30.2517 0 19.5 0C8.74831 0 0.00021459 8.79312 0.00021459 19.5879C-0.0704721 35.3783 17.3453 48.0179 18.0863 48.5447ZM19.5 4.90004C27.5656 4.90004 34.1248 11.493 34.1248 19.6124C34.176 30.4856 23.4292 40.2489 19.5 43.4511C15.5732 40.2465 4.82397 30.4807 4.87516 19.6002C4.87516 11.493 11.4344 4.90004 19.5 4.90004Z" fill="white"/>
</svg>
