<svg width="42" height="42" viewBox="0 0 42 42" fill="none" xmlns="http://www.w3.org/2000/svg">
<path d="M32.5125 22.746C32.3074 22.5406 32.0639 22.3776 31.7958 22.2665C31.5277 22.1553 31.2403 22.098 30.9501 22.098C30.6598 22.098 30.3725 22.1553 30.1044 22.2665C29.8363 22.3776 29.5927 22.5406 29.3877 22.746L25.8651 26.2684C24.232 25.7822 21.1845 24.6773 19.2531 22.746C17.3216 20.8146 16.2167 17.7673 15.7305 16.1342L19.2531 12.6118C19.4585 12.4068 19.6214 12.1632 19.7326 11.8951C19.8438 11.6271 19.901 11.3397 19.901 11.0495C19.901 10.7592 19.8438 10.4719 19.7326 10.2038C19.6214 9.93571 19.4585 9.69218 19.2531 9.48714L10.4135 0.647917C10.2085 0.442525 9.96492 0.279579 9.69683 0.168402C9.42873 0.0572253 9.14135 0 8.85111 0C8.56088 0 8.27349 0.0572253 8.0054 0.168402C7.73731 0.279579 7.49377 0.442525 7.28872 0.647917L1.29548 6.64091C0.455718 7.48063 -0.0172006 8.63415 0.000478541 9.81198C0.0513062 12.9587 0.884438 23.8884 9.49861 32.5023C18.1128 41.1161 29.0429 41.947 32.192 42H32.2539C33.4207 42 34.5235 41.5404 35.3588 40.7051L41.3521 34.7121C41.5575 34.507 41.7204 34.2635 41.8316 33.9954C41.9428 33.7273 42 33.4399 42 33.1497C42 32.8595 41.9428 32.5721 41.8316 32.3041C41.7204 32.036 41.5575 31.7924 41.3521 31.5874L32.5125 22.746ZM32.2318 37.5782C29.4739 37.5318 20.0376 36.7915 12.6234 29.3754C5.1849 21.9372 4.46447 12.4682 4.42027 9.76557L8.85111 5.33491L14.5659 11.0495L11.7085 13.9067C11.4488 14.1663 11.2578 14.4865 11.1528 14.8383C11.0479 15.1902 11.0323 15.5627 11.1074 15.9221C11.1605 16.1762 12.4577 22.2024 16.1261 25.8706C19.7945 29.5389 25.8209 30.8361 26.075 30.8891C26.4343 30.9664 26.8071 30.952 27.1593 30.8473C27.5115 30.7427 27.8317 30.5511 28.0905 30.2902L30.9501 27.433L36.6649 33.1475L32.2318 37.5782Z" fill="#163A6C"/>
</svg>
