<svg width="14" height="14" viewBox="0 0 14 14" fill="none" xmlns="http://www.w3.org/2000/svg">
<path fill-rule="evenodd" clip-rule="evenodd" d="M12.2734 7C12.2734 8.3986 11.7178 9.73992 10.7289 10.7289C9.73992 11.7178 8.3986 12.2734 7 12.2734C5.6014 12.2734 4.26008 11.7178 3.27112 10.7289C2.28216 9.73992 1.72656 8.3986 1.72656 7C1.72656 5.6014 2.28216 4.26008 3.27112 3.27112C4.26008 2.28216 5.6014 1.72656 7 1.72656C8.3986 1.72656 9.73992 2.28216 10.7289 3.27112C11.7178 4.26008 12.2734 5.6014 12.2734 7ZM13.25 7C13.25 8.6576 12.5915 10.2473 11.4194 11.4194C10.2473 12.5915 8.6576 13.25 7 13.25C5.3424 13.25 3.75269 12.5915 2.58058 11.4194C1.40848 10.2473 0.75 8.6576 0.75 7C0.75 5.3424 1.40848 3.75269 2.58058 2.58058C3.75269 1.40848 5.3424 0.75 7 0.75C8.6576 0.75 10.2473 1.40848 11.4194 2.58058C12.5915 3.75269 13.25 5.3424 13.25 7ZM6.58594 5.07031L7.92969 6.41406H3.875V7.58594H7.92969L6.58594 8.92969L7.41406 9.75781L9.75781 7.41406C9.86754 7.3042 9.92917 7.15527 9.92917 7C9.92917 6.84473 9.86754 6.6958 9.75781 6.58594L7.41406 4.24219L6.58594 5.07031Z" fill="#163A6C"/>
</svg>
