<svg width="24" height="24" viewBox="0 0 24 24" fill="none" xmlns="http://www.w3.org/2000/svg">
<path d="M5.67723 14.7117L3.93782 22.2437C3.88396 22.4717 3.90013 22.7107 3.98422 22.9295C4.06831 23.1482 4.21641 23.3365 4.40918 23.4698C4.60195 23.603 4.83042 23.6751 5.06476 23.6765C5.29911 23.6779 5.52842 23.6085 5.72276 23.4776L12.0792 19.24L18.4356 23.4776C18.6345 23.6096 18.869 23.6776 19.1076 23.6723C19.3462 23.6671 19.5775 23.5889 19.7704 23.4483C19.9633 23.3077 20.1085 23.1114 20.1864 22.8858C20.2644 22.6602 20.2714 22.4162 20.2066 22.1865L18.0714 14.7152L23.3667 9.94989C23.5363 9.79718 23.6574 9.59811 23.715 9.37729C23.7727 9.15648 23.7644 8.92361 23.6911 8.70748C23.6178 8.49135 23.4828 8.30144 23.3027 8.16124C23.1226 8.02104 22.9054 7.93669 22.6779 7.91863L16.0226 7.38863L13.1427 1.01352C13.0509 0.808245 12.9016 0.63393 12.7129 0.511616C12.5242 0.389303 12.3041 0.324219 12.0792 0.324219C11.8543 0.324219 11.6342 0.389303 11.4455 0.511616C11.2568 0.63393 11.1075 0.808245 11.0157 1.01352L8.13575 7.38863L1.48047 7.91746C1.25686 7.93518 1.04309 8.01694 0.864736 8.15296C0.686379 8.28898 0.550986 8.47351 0.474756 8.68447C0.398525 8.89543 0.384685 9.12388 0.434891 9.3425C0.485098 9.56111 0.597224 9.76064 0.757856 9.9172L5.67723 14.7117ZM9.00779 9.66154C9.21617 9.64512 9.41629 9.57295 9.58717 9.45259C9.75806 9.33223 9.89342 9.16812 9.97906 8.97745L12.0792 4.33008L14.1793 8.97745C14.265 9.16812 14.4003 9.33223 14.5712 9.45259C14.7421 9.57295 14.9422 9.64512 15.1506 9.66154L19.7875 10.0293L15.9689 13.4661C15.6374 13.7649 15.5055 14.2249 15.6269 14.6545L17.0896 19.7735L12.7283 16.8655C12.5368 16.737 12.3115 16.6684 12.0809 16.6684C11.8504 16.6684 11.6251 16.737 11.4336 16.8655L6.87614 19.9042L8.1019 14.5973C8.14684 14.4021 8.14081 14.1986 8.08438 14.0064C8.02796 13.8142 7.92303 13.6398 7.7797 13.4999L4.23317 10.0421L9.00779 9.66154Z" fill="#FF8401"/>
</svg>
