<svg width="24" height="24" viewBox="0 0 24 24" fill="none" xmlns="http://www.w3.org/2000/svg">
<path d="M23.6209 8.7072C23.5475 8.49108 23.4125 8.30117 23.2324 8.16093C23.0523 8.02069 22.8351 7.93625 22.6076 7.91805L15.9523 7.38922L13.0724 1.01411C12.9807 0.808778 12.8315 0.634381 12.6428 0.511964C12.4542 0.389547 12.2341 0.324342 12.0093 0.324219C11.7844 0.324095 11.5643 0.389059 11.3755 0.511269C11.1867 0.633479 11.0373 0.807712 10.9454 1.01294L8.06544 7.38922L1.41016 7.91805C1.18655 7.93576 0.972781 8.01752 0.794423 8.15354C0.616066 8.28957 0.480674 8.4741 0.404443 8.68505C0.328213 8.89601 0.314373 9.12446 0.364579 9.34308C0.414785 9.5617 0.526911 9.76122 0.687543 9.91778L5.60575 14.7122L3.86634 22.2442C3.81353 22.4722 3.83045 22.7108 3.91493 22.9291C3.9994 23.1473 4.14753 23.3352 4.34007 23.4682C4.53262 23.6012 4.7607 23.6733 4.99472 23.6751C5.22874 23.6768 5.4579 23.6082 5.65245 23.4782L12.0089 19.2406L18.3653 23.4782C18.5642 23.6102 18.7987 23.6782 19.0373 23.6729C19.2759 23.6677 19.5072 23.5895 19.7001 23.4489C19.893 23.3083 20.0382 23.112 20.1161 22.8864C20.1941 22.6608 20.2011 22.4167 20.1362 22.187L18.0011 14.7158L23.2964 9.95047C23.6431 9.63761 23.7703 9.14964 23.6209 8.7072Z" fill="#FF8401"/>
</svg>
