<svg width="29" height="29" viewBox="0 0 29 29" fill="none" xmlns="http://www.w3.org/2000/svg">
<path d="M27.8531 5.72064V1.14341C27.8531 0.510963 27.3358 0 26.6955 0H2.24274C1.60248 0 1.08521 0.510963 1.08521 1.14341V5.72064C0.48112 5.75638 2.24124e-05 6.25305 2.24124e-05 6.86048V11.5663C-0.00229411 12.4312 0.174988 13.2874 0.520911 14.0819C0.676454 14.4463 0.868169 14.7893 1.08521 15.1145V27.4419C1.08521 28.0708 1.60248 28.5854 2.24274 28.5854H26.6955C27.3358 28.5854 27.8531 28.0744 27.8531 27.4419V15.1145C28.0735 14.7885 28.2625 14.4428 28.4174 14.0819C28.761 13.285 28.9383 12.4382 28.9383 11.5663V6.86048C28.9383 6.25305 28.4572 5.75638 27.8531 5.72064ZM3.68965 2.57268H25.2486V5.71707H3.68965V2.57268ZM16.7842 26.0162H12.1541V22.2966H16.7842V26.0162ZM25.2631 26.0162H19.0993V21.1532C19.0993 20.5207 18.582 20.0097 17.9417 20.0097H10.9965C10.3563 20.0097 9.83902 20.5207 9.83902 21.1532V26.0162H3.68965V17.362C3.79455 17.4121 3.90307 17.4621 4.0152 17.505C4.82186 17.8408 5.67915 18.0088 6.56177 18.0088C7.44438 18.0088 8.29806 17.8408 9.10833 17.505C9.60751 17.2977 10.0778 17.0333 10.5082 16.7153C10.5155 16.7117 10.5227 16.7117 10.5299 16.7153C10.9617 17.0346 11.4319 17.2999 11.9298 17.505C12.7365 17.8408 13.5938 18.0088 14.4764 18.0088C15.359 18.0088 16.2127 17.8408 17.0229 17.505C17.5221 17.2977 17.9924 17.0333 18.4228 16.7153C18.4301 16.7117 18.4373 16.7117 18.4445 16.7153C18.8763 17.0346 19.3465 17.2999 19.8444 17.505C20.6511 17.8408 21.5084 18.0088 22.391 18.0088C23.2736 18.0088 24.1273 17.8408 24.9375 17.505C25.0461 17.4585 25.1546 17.4121 25.2631 17.362V26.0162ZM26.3338 11.5663C26.3338 13.7031 24.5613 15.4361 22.3801 15.4361C20.9043 15.4361 19.6165 14.6464 18.9365 13.4744C18.8316 13.2958 18.6435 13.185 18.4337 13.185H18.412C18.2058 13.185 18.0141 13.2958 17.9092 13.4744C17.5621 14.0723 17.061 14.5687 16.4568 14.9133C15.8526 15.2578 15.1668 15.4382 14.4691 15.4361C12.9969 15.4361 11.7128 14.65 11.0327 13.4816C10.9242 13.2993 10.7289 13.185 10.5155 13.185C10.302 13.185 10.1031 13.2993 9.99818 13.4816C9.64911 14.0771 9.14738 14.5713 8.54348 14.9145C7.93957 15.2576 7.25482 15.4375 6.55815 15.4361C4.37693 15.4361 2.60446 13.7031 2.60446 11.5663V8.30762C2.60446 8.2969 2.6117 8.28975 2.62255 8.28975H26.3157C26.3266 8.28975 26.3338 8.2969 26.3338 8.30762V11.5663Z" fill="white"/>
</svg>
