<svg width="38" height="30" viewBox="0 0 38 30" fill="none" xmlns="http://www.w3.org/2000/svg">
<g clip-path="url(#clip0_266_2313)">
<path d="M23.0708 6.82422H32.5691V9.54994H23.0708V6.82422Z" fill="white"/>
<path d="M23.0708 13.6367H32.5691V16.3624H23.0708V13.6367Z" fill="white"/>
<path d="M23.0708 20.4512H32.5691V23.1769H23.0708V20.4512Z" fill="white"/>
<path d="M35.2828 0.00976562H2.71722C1.9977 0.0104872 1.30785 0.297893 0.799066 0.80891C0.290285 1.31993 0.00413642 2.01281 0.00341797 2.73549V27.267C0.00413642 27.9897 0.290285 28.6826 0.799066 29.1936C1.30785 29.7046 1.9977 29.992 2.71722 29.9928H35.2828C36.0023 29.9917 36.6919 29.7042 37.2006 29.1932C37.7093 28.6823 37.9956 27.9896 37.9966 27.267V2.73549C37.9959 2.01281 37.7098 1.31993 37.201 0.80891C36.6922 0.297893 36.0024 0.0104872 35.2828 0.00976562ZM2.71722 2.73549H17.6431V27.267H2.71722V2.73549ZM20.3569 27.267V2.73549H35.2828L35.2856 27.267H20.3569Z" fill="white"/>
</g>
<defs>
<clipPath id="clip0_266_2313">
<rect width="38" height="30" fill="white"/>
</clipPath>
</defs>
</svg>
