<svg width="34" height="29" viewBox="0 0 34 29" fill="none" xmlns="http://www.w3.org/2000/svg">
<path d="M30.3571 6.04167H26.7143V2.41667C26.7143 1.77573 26.4584 1.16104 26.003 0.707825C25.5475 0.254612 24.9298 0 24.2857 0H9.71429C9.07019 0 8.45247 0.254612 7.99703 0.707825C7.54158 1.16104 7.28571 1.77573 7.28571 2.41667V6.04167H3.64286C2.67671 6.04167 1.75014 6.42358 1.06697 7.1034C0.3838 7.78322 0 8.70526 0 9.66667V26.5833C0 27.2243 0.255866 27.839 0.711312 28.2922C1.16676 28.7454 1.78447 29 2.42857 29H31.5714C32.2155 29 32.8332 28.7454 33.2887 28.2922C33.7441 27.839 34 27.2243 34 26.5833V9.66667C34 8.70526 33.6162 7.78322 32.933 7.1034C32.2499 6.42358 31.3233 6.04167 30.3571 6.04167ZM9.71429 2.41667H24.2857V6.04167H9.71429V2.41667ZM31.5714 26.5833H2.42857V15.7083H12.1429V21.75H21.8571V15.7083H31.5714V26.5833ZM14.5714 15.7083H19.4286V19.3333H14.5714V15.7083ZM2.42857 13.2917V9.66667C2.42857 9.3462 2.5565 9.03885 2.78423 8.81225C3.01195 8.58564 3.32081 8.45833 3.64286 8.45833H30.3571C30.6792 8.45833 30.9881 8.58564 31.2158 8.81225C31.4435 9.03885 31.5714 9.3462 31.5714 9.66667V13.2917H2.42857Z" fill="#163A6C"/>
</svg>
