<svg width="100" height="61" viewBox="0 0 100 61" fill="none" xmlns="http://www.w3.org/2000/svg">
<rect width="100" height="61" rx="2" fill="#FF8401"/>
<path d="M61.5503 31.0506L61.5504 31.0506C61.9205 30.8563 62 30.6181 62 30.5C62 30.3821 61.9204 30.1438 61.5502 29.9494L41.0543 19.1865L41.0542 19.1865C40.6325 18.965 40.0485 18.9351 39.5769 19.1274L61.5503 31.0506ZM61.5503 31.0506L41.0543 41.8135M61.5503 31.0506L41.0543 41.8135M41.0543 41.8135C40.6325 42.035 40.0484 42.0649 39.5769 41.8726L41.0543 41.8135ZM39 41.2629C39 41.3918 39.1039 41.6795 39.5767 41.8726L39 41.2629ZM39 41.2629V19.7371M39 41.2629V19.7371M39 19.7371C39 19.6082 39.1039 19.3205 39.5767 19.1275L39 19.7371Z" fill="white" stroke="white" stroke-width="2"/>
</svg>
